<svg t="1723723066320" class="icon" viewBox="0 0 1024 1024" version="1.1" xmlns="http://www.w3.org/2000/svg" p-id="1422" width="16" height="16"><path d="M514.91 376.82c-167 0-304.77 204.24-304.77 330.45 0 116.93 52 116.93 306.24 116.93s306.24 0 306.24-116.93c0-126.21-140.62-330.45-307.71-330.45z m1.47 347.38a123.69 123.69 0 1 1 123.69-123.69A123.69 123.69 0 0 1 516.38 724.2z" fill="#468EF7" p-id="1423"></path><path d="M154 388.73c12.45 46.12 21.07 59.3 73.39 52 61.5-8.57 113.54-25 109.65-78.15 0 0 18.24-57.24 167.92-61.34 174.66-4.18 190.57 63.57 190.57 63.57 0.17 62.37 43.26 65.92 104.66 75.16s75.73-5.92 83.17-74.12C897.65 234.42 657.42 199.72 552 198.23S391.25 195.51 314.32 218l-41.47 11.73c-57.73 18.57-109.54 52.46-121.53 100.81 0 0-7.06 22 2.64 58.17z m0 0" fill="#69ADFF" p-id="1424"></path></svg>